<?xml version="1.0" encoding="utf-8"?>
<!-- Generator: Adobe Illustrator 22.1.0, SVG Export Plug-In . SVG Version: 6.00 Build 0)  -->
<svg version="1.1" id="レイヤー_1" xmlns="http://www.w3.org/2000/svg" xmlns:xlink="http://www.w3.org/1999/xlink" x="0px"
	 y="0px" viewBox="0 0 524.3 110.2" style="enable-background:new 0 0 524.3 110.2;" xml:space="preserve">
<style type="text/css">
	.st0{fill:#FFFFFF;}
</style>
<title>global walkers</title>
<path class="st0" d="M494.3,67.9c-1.2,0-2.4,0.3-3.4,0.9c-1,0.7-1.7,1.6-2.1,2.7c-0.4,1.9-0.6,3.8-0.5,5.7v15h-8V73.5
	c0-7.6,4.6-12.8,11.7-12.8h7.4v7.2L494.3,67.9L494.3,67.9z"/>
<path class="st0" d="M133.4,63h-8.2c-2.9-3.7-7.4-5.8-12.1-5.6c-3.8-0.1-7.4,1.4-10.1,4.1c-2.7,2.6-4.1,6.2-4.1,9.9
	c-0.1,3.8,1.5,7.5,4.2,10.2c2.8,2.8,6.5,4.3,10.4,4.2c2.4,0.1,4.8-0.5,6.8-1.7c2.5-1.6,4.3-4.1,5.1-6.9H113v-7.4h20.6l0.1,1.8
	c0,4.1-0.9,8.2-2.8,11.9c-1.6,3.1-4.1,5.7-7.2,7.4c-3.2,1.8-6.7,2.7-10.4,2.6c-4,0.1-7.9-0.9-11.3-2.8c-3.3-1.9-6.1-4.6-7.9-8
	c-1.9-3.4-2.9-7.3-2.9-11.2c-0.1-11.8,9.5-21.5,21.3-21.6c0.2,0,0.4,0,0.6,0c3.4,0,6.8,0.6,10,2C125.6,52.8,131.3,56.7,133.4,63z"/>
<path class="st0" d="M140.6,49.7h8v42.5h-8V49.7z"/>
<path class="st0" d="M170.9,60.7c3,0,5.9,0.7,8.5,2.2c2.6,1.4,4.7,3.4,6.2,5.9c1.5,2.4,2.2,5.2,2.2,8c0,2.9-0.8,5.7-2.3,8.1
	c-1.5,2.5-3.6,4.5-6.1,5.9c-2.6,1.4-5.6,2.2-8.5,2.1c-4.4,0.1-8.6-1.6-11.7-4.7c-6.3-6.1-6.5-16.1-0.4-22.4c0.3-0.4,0.7-0.7,1.1-1
	C162.8,62.1,166.8,60.7,170.9,60.7z M171,67.9c-2.3-0.1-4.6,0.8-6.2,2.5c-1.7,1.7-2.6,4-2.5,6.4c-0.1,2.4,0.8,4.7,2.4,6.5
	c1.6,1.7,3.9,2.6,6.2,2.5c2.3,0.1,4.6-0.8,6.3-2.5c3.3-3.7,3.3-9.2,0-12.9C175.6,68.8,173.3,67.9,171,67.9L171,67.9z"/>
<path class="st0" d="M272,49.7h8v42.5h-8V49.7z"/>
<path class="st0" d="M301.7,50.7h8.1l6.2,26.5l7.7-26.5h6.8l7.8,26.5l6.2-26.5h8.1l-9.7,41.5H335l-8-26.8l-7.8,26.8h-7.8L301.7,50.7
	z"/>
<path class="st0" d="M395.6,49.7h8v42.5h-8V49.7z"/>
<path class="st0" d="M410.9,49.7h8v24.5l11.8-12.6h10.1L427,76.2l15.4,16h-9.9l-13.6-14.1v14.1h-8L410.9,49.7L410.9,49.7z"/>
<path class="st0" d="M475.5,79.1h-25.1c0.3,2,1.3,3.9,2.9,5.2c1.7,1.3,3.8,2,6,1.9c2.8,0,5.5-1,7.5-3l6.6,3
	c-1.5,2.2-3.5,3.9-5.9,5.1c-2.6,1.2-5.3,1.7-8.2,1.6c-4.4,0.2-8.7-1.5-11.9-4.6c-3.1-3-4.7-7.1-4.6-11.4c-0.1-4.4,1.5-8.6,4.6-11.7
	c3-3.1,7.2-4.8,11.5-4.6c4.5-0.2,8.8,1.5,12,4.6c3.1,3.1,4.6,7.2,4.6,12.3L475.5,79.1z M467.6,73c-0.5-1.7-1.6-3.2-3.1-4.2
	c-1.6-1.1-3.4-1.6-5.3-1.6c-2.1,0-4.1,0.6-5.7,1.8c-1.3,1.1-2.3,2.4-2.9,4L467.6,73L467.6,73z"/>
<path class="st0" d="M523.8,65.8l-5,4.8c-2-1.9-3.8-2.9-5.5-2.9c-0.7,0-1.5,0.2-2.1,0.6c-0.8,0.5-1,1.4-0.5,2.2
	c0.1,0.1,0.2,0.2,0.2,0.3c0.7,0.6,1.5,1.1,2.4,1.4l2.9,1.4c3.1,1.5,5.2,3,6.4,4.5c2.8,3.8,2.2,9.1-1.4,12.2
	c-2.4,1.9-5.3,2.9-8.4,2.7c-4.3,0.1-8.5-1.8-11.2-5.2l4.9-5.2c0.9,1,2.1,1.9,3.3,2.6c1,0.6,2.2,0.9,3.4,1c0.9,0,1.8-0.2,2.6-0.7
	c0.6-0.4,1-1,1-1.7c0-1.2-1.2-2.3-3.5-3.5l-2.7-1.3c-5.2-2.5-7.8-5.6-7.8-9.4c0-2.4,1.1-4.7,2.9-6.2c2.1-1.8,4.7-2.7,7.5-2.6
	c2,0,4,0.4,5.9,1.3C520.9,62.9,522.5,64.2,523.8,65.8z"/>
<path class="st0" d="M380.7,61.5v1.6l-0.4-0.3c-2.6-1.4-5.5-2.2-8.5-2.2c-4.1,0-8,1.5-11.1,4.2c-6.6,5.7-7.4,15.7-1.7,22.3
	c0.3,0.4,0.7,0.7,1,1.1c3.1,3.1,7.3,4.8,11.7,4.7c3,0,5.9-0.7,8.5-2.1l0.3-0.2v1.6h8V61.5H380.7L380.7,61.5z M378.1,83.3
	c-1.6,1.7-3.9,2.6-6.3,2.5c-2.3,0.1-4.6-0.8-6.2-2.5c-1.7-1.7-2.6-4.1-2.5-6.5c-0.1-2.4,0.8-4.7,2.5-6.4c3.5-3.3,9-3.3,12.5,0
	C381.4,74.1,381.4,79.7,378.1,83.3z"/>
<path class="st0" d="M257.1,61.5v1.6l-0.4-0.3c-2.6-1.4-5.5-2.2-8.5-2.2c-4.1,0-8,1.5-11.1,4.2c-6.6,5.7-7.3,15.7-1.6,22.3
	c0.3,0.4,0.7,0.7,1,1.1c3.1,3.1,7.3,4.8,11.7,4.7c3,0,5.9-0.7,8.5-2.1l0.3-0.2v1.6h8V61.5H257.1z M254.6,83.3c-3.5,3.3-9,3.3-12.5,0
	c-1.7-1.7-2.6-4.1-2.4-6.5c-0.1-2.4,0.8-4.7,2.5-6.4c3.5-3.3,9-3.3,12.5,0C257.9,74.1,257.9,79.6,254.6,83.3L254.6,83.3z"/>
<path class="st0" d="M225.1,68.8c-1.5-2.5-3.6-4.5-6.2-5.9c-2.6-1.4-5.5-2.2-8.5-2.2c-3,0-6,0.8-8.5,2.3V49.7h-8v42.5h8v-1.5
	c2.6,1.5,5.6,2.3,8.6,2.3c3,0,5.9-0.7,8.5-2.1c2.5-1.4,4.7-3.4,6.1-5.9c1.5-2.4,2.3-5.3,2.3-8.1C227.3,74,226.6,71.2,225.1,68.8z
	 M216.8,83.3c-3.5,3.3-9,3.3-12.5,0c-1.5-1.5-2.4-3.6-2.4-5.7v-1.5c0.4-4.9,4.6-8.5,9.5-8.2c2.1,0.2,4,1,5.5,2.5
	C220.1,74.1,220.1,79.7,216.8,83.3L216.8,83.3z"/>
<path class="st0" d="M50.4,95.8c0.5-1.4,1.5-4.7,1.4-10.8c-0.1-7.4-1.6-11.1-1.7-11.2l-0.6-1.3l3.7-6.6l2.3,0.9
	c2.2,0.7,4.4,1.2,6.6,1.5c1,0.1,2,0.2,3,0.3c-3-10.9-11.3-19.6-22.1-23l6.3-3.1l-0.9-2.3l-5.5,1l-7.9-11.7l-1.9,2.2l7.9,13.3
	c-2.6-0.7-5.2-1-7.9-1c-0.8,0-1.6,0-2.4,0.1c1.5,2.6,3.3,5.1,5.4,7.3c2.1,2.4,4.4,4.7,6.8,6.8l2,1.7l-5,7.1l-1.9-0.5
	c-3-0.6-6-0.9-9-0.9c-2.6,0-5.2,0.2-7.7,0.8c-5.6,1.3-11.1,3.2-16.2,5.9l-1,0.5l-3.8-0.9c-2.9,18.1,9.5,35.1,27.5,37.9
	c0.6,0.1,1.1,0.2,1.7,0.2l9.3-12L50.4,95.8z M21.6,84.4l-2.4-2.1L13.9,83l-0.5-2.1l6.7-1.3l4.3-3.9l2.8,3.3L21.6,84.4z M27,76.4
	l-1.3-5.3l5.5-1.2l1.5,5.4L27,76.4z M8.4,88.6l-1.2-6.4l3.9-0.8l1.2,6.4L8.4,88.6z M15.2,87.2L14.5,85l4.1-0.9l1.5,1.9L15.2,87.2z"
	/>
<path class="st0" d="M66.2,74.5c-1.6-0.1-3.2-0.3-4.7-0.5c-1.9-0.2-3.8-0.6-5.6-1.1l0,0c1.1,3.9,1.6,7.9,1.6,11.9
	c0.2,10.6-2.5,14.6-2.8,15.1l-0.6,0.9l-11.8,2.6l-5.3,6.8C54.7,108.1,67.7,92.3,66.2,74.5z"/>
<path class="st0" d="M20.1,61c3-0.7,6-1,9-1c2.7,0,5.3,0.2,7.9,0.6c-1.2-1.2-3-2.9-5.1-5.2c-2.8-3-5.2-6.4-7.1-10l-2.7-5.9
	l11.1-12.9l0.8-11.3l3.5,1.2l2.6-0.6l-1.6-8.6l-2.3,0.4l1.1,6.2l-6.6-2.5l-0.4-0.1l-0.9,14.3L17,40.3l4.9,5.9
	C12.5,49.5,5.1,57,1.8,66.5l1.6,0.4C8.7,64.2,14.3,62.3,20.1,61z"/>
<path class="st0" d="M27.8,12.8L20,21.8l-0.2-0.2c-0.6-0.6-1.5-0.6-2.1,0l-0.6,0.6l-1.8-1.8L10,25.8l7.6,7.5l5.3-5.4l-1.8-1.8
	l0.6-0.6c0.6-0.6,0.6-1.5,0-2.1l0,0l5.7-6.5L27.8,12.8z M17.8,22.8l0.6-0.6c0.2-0.2,0.5-0.2,0.7,0c0,0,0,0,0,0l1.9,1.9
	c0.1,0.1,0.1,0.2,0.1,0.3c0,0.1-0.1,0.2-0.1,0.3l-0.6,0.6L17.8,22.8z"/>
<path class="st0" d="M35,6.8l1.1-0.2l-0.4-2.5c0-0.2-0.2-0.3-0.3-0.3l-2,0.3c-0.2,0-0.3,0.2-0.3,0.4l0.8,5.1c0,0.2,0.2,0.3,0.3,0.3
	h0.1l1.2-0.2L35,6.8z"/>
<path class="st0" d="M33.2,3.2l2-0.3c0.7-0.1,1.4,0.4,1.5,1.1l0.4,2.5l0.3-0.1c1.2-2,0.6-4.6-1.4-5.8c-2-1.2-4.6-0.6-5.8,1.4
	c-1.2,2-0.6,4.6,1.4,5.8c0.3,0.2,0.6,0.3,1,0.4l-0.6-3.5C32,4,32.5,3.3,33.2,3.2z"/>
</svg>
